ply
format ascii 1.0
comment Generated by PyMesh
element vertex 14
property double x
property double y
property double z
property uchar red
property uchar green
property uchar blue
element face 24
property list uchar int vertex_indices
end_header
1 -1 -1 182 176 156
1 -1 1 150 146 129
-1 -1 1 128 124 110
-1 -1 -1 171 166 147
1 1 -0.999999 139 135 119
0.999999 1 1 61 59 52
-1 1 1 62 60 53
-1 1 -1 134 130 115
0 -1 -0 163 158 140
-0 1 0 105 102 91
1 0 0 136 132 117
-0 -0 1 66 64 57
-1 -0 -0 131 127 112
0 0 -1 200 194 171
3 4 7 9
3 0 4 10
3 1 5 11
3 2 6 12
3 4 0 13
3 0 1 8
3 1 2 8
3 2 3 8
3 3 0 8
3 7 6 9
3 6 5 9
3 5 4 9
3 4 5 10
3 5 1 10
3 1 0 10
3 5 6 11
3 6 2 11
3 2 1 11
3 6 7 12
3 7 3 12
3 3 2 12
3 0 3 13
3 3 7 13
3 7 4 13
