ply
format ascii 1.0
comment Created by Blender 2.78 (sub 0) - www.blender.org, source file: 'untitled.blend'
element vertex 24
property float x
property float y
property float z
property float nx
property float ny
property float nz
property uchar red
property uchar green
property uchar blue
element face 6
property list uchar uint vertex_indices
end_header
1.000000 1.000000 -1.000000 0.000000 0.000000 -1.000000 51 51 51
1.000000 -1.000000 -1.000000 0.000000 0.000000 -1.000000 78 78 78
-1.000000 -1.000000 -1.000000 0.000000 0.000000 -1.000000 248 255 251
-1.000000 1.000000 -1.000000 0.000000 0.000000 -1.000000 247 253 251
1.000000 0.999999 1.000000 0.000000 -0.000000 1.000000 248 255 251
-1.000000 1.000000 1.000000 0.000000 -0.000000 1.000000 247 254 251
-1.000000 -1.000000 1.000000 0.000000 -0.000000 1.000000 248 255 251
0.999999 -1.000001 1.000000 0.000000 -0.000000 1.000000 248 255 251
1.000000 1.000000 -1.000000 1.000000 -0.000000 0.000000 51 51 51
1.000000 0.999999 1.000000 1.000000 -0.000000 0.000000 248 255 251
0.999999 -1.000001 1.000000 1.000000 -0.000000 0.000000 248 255 251
1.000000 -1.000000 -1.000000 1.000000 -0.000000 0.000000 78 78 78
1.000000 -1.000000 -1.000000 -0.000000 -1.000000 -0.000000 78 78 78
0.999999 -1.000001 1.000000 -0.000000 -1.000000 -0.000000 247 253 251
-1.000000 -1.000000 1.000000 -0.000000 -1.000000 -0.000000 239 244 252
-1.000000 -1.000000 -1.000000 -0.000000 -1.000000 -0.000000 248 255 251
-1.000000 -1.000000 -1.000000 -1.000000 0.000000 -0.000000 248 255 251
-1.000000 -1.000000 1.000000 -1.000000 0.000000 -0.000000 248 255 251
-1.000000 1.000000 1.000000 -1.000000 0.000000 -0.000000 247 254 252
-1.000000 1.000000 -1.000000 -1.000000 0.000000 -0.000000 248 255 251
1.000000 0.999999 1.000000 0.000000 1.000000 0.000000 242 248 252
1.000000 1.000000 -1.000000 0.000000 1.000000 0.000000 51 51 51
-1.000000 1.000000 -1.000000 0.000000 1.000000 0.000000 247 253 251
-1.000000 1.000000 1.000000 0.000000 1.000000 0.000000 248 255 251
4 0 1 2 3
4 4 5 6 7
4 8 9 10 11
4 12 13 14 15
4 16 17 18 19
4 20 21 22 23
